<svg width="70" height="40" viewBox="0 0 70 40" fill="none" xmlns="http://www.w3.org/2000/svg">
<path fill-rule="evenodd" clip-rule="evenodd" d="M8.23523 30.6066L23.5735 39.1883C26.5601 40.8593 30.3791 39.8676 32.1034 36.9734C33.8277 34.0792 32.8044 30.3783 29.8178 28.7073L19.8994 23.158L10.9201 29.2514C10.0697 29.8285 9.16674 30.2789 8.23523 30.6066Z" fill="#F0402C"/>
<path fill-rule="evenodd" clip-rule="evenodd" d="M2.49597 15.7756L21.672 1.15375C24.3197 -0.865112 27.9691 -0.164616 29.8232 2.71835C30.2867 3.43909 30.5941 4.228 30.7532 5.0375C31.0172 6.38139 30.8723 7.78202 30.3537 9.02163C29.9351 10.0221 29.2731 10.9176 28.3863 11.5938L9.2102 26.2157C6.56254 28.2345 2.91316 27.5341 1.05907 24.6511C0.342978 23.5376 -0.000577195 22.2614 6.87285e-07 20.998C0.000939016 18.9902 0.870931 17.0147 2.49597 15.7756Z" fill="#F0402C"/>
<path fill-rule="evenodd" clip-rule="evenodd" d="M8.23523 30.6066L23.5735 39.1883C26.5601 40.8593 30.3791 39.8676 32.1034 36.9734C33.8277 34.0792 32.8044 30.3783 29.8178 28.7073L19.8994 23.158L10.9201 29.2514C10.0697 29.8285 9.16674 30.2789 8.23523 30.6066Z" fill="url(#paint0_linear_1_15)"/>
<path fill-rule="evenodd" clip-rule="evenodd" d="M61.7643 9.39349L46.426 0.81177C43.4394 -0.859222 39.6204 0.13242 37.8961 3.02666C36.1718 5.92091 37.1951 9.62176 40.1817 11.2928L50.1002 16.8421L59.0794 10.7487C59.9298 10.1715 60.8328 9.72116 61.7643 9.39349Z" fill="#F0402C"/>
<path fill-rule="evenodd" clip-rule="evenodd" d="M61.7643 9.39349L46.426 0.81177C43.4394 -0.859222 39.6204 0.13242 37.8961 3.02666C36.1718 5.92091 37.1951 9.62176 40.1817 11.2928L50.1002 16.8421L59.0794 10.7487C59.9298 10.1715 60.8328 9.72116 61.7643 9.39349Z" fill="url(#paint1_linear_1_15)"/>
<path fill-rule="evenodd" clip-rule="evenodd" d="M67.5038 25.4384L48.3277 38.9355C45.6801 40.7991 42.0307 40.1525 40.1766 37.4913C39.7131 36.826 39.4056 36.0977 39.2466 35.3505C38.9826 34.11 39.1275 32.8171 39.6461 31.6728C40.0647 30.7494 40.7267 29.9227 41.6135 29.2985L60.7896 15.8014C63.4372 13.9379 67.0866 14.5845 68.9407 17.2457C69.6568 18.2735 70.0003 19.4515 69.9998 20.6177C69.9988 22.4711 69.1288 24.2946 67.5038 25.4384Z" fill="#F0402C"/>
<defs>
<linearGradient id="paint0_linear_1_15" x1="15.4411" y1="26.316" x2="30.1241" y2="38.6238" gradientUnits="userSpaceOnUse">
<stop stop-color="#020617" stop-opacity="0.5"/>
<stop offset="1" stop-color="#020617" stop-opacity="0"/>
</linearGradient>
<linearGradient id="paint1_linear_1_15" x1="51.4702" y1="16.8421" x2="40.8555" y2="1.27126" gradientUnits="userSpaceOnUse">
<stop stop-color="#020617" stop-opacity="0.5"/>
<stop offset="0.0001" stop-color="#020617" stop-opacity="0.4"/>
<stop offset="1" stop-color="#020617" stop-opacity="0"/>
</linearGradient>
</defs>
</svg>
